<?xml version="1.0" encoding="iso-8859-1"?>
<!-- Generator: Adobe Illustrator 19.0.0, SVG Export Plug-In . SVG Version: 6.00 Build 0)  -->
<svg version="1.1" id="Layer_1" xmlns="http://www.w3.org/2000/svg" xmlns:xlink="http://www.w3.org/1999/xlink" x="0px" y="0px"
	 viewBox="0 0 511.834 511.834" style="enable-background:new 0 0 511.834 511.834;" xml:space="preserve">
<path style="fill:#AF6518;" d="M133.78,234.088c-4.92,44.575,4.153,85.483,31.31,112.642c64.446,64.443,206.318,27.057,290.876-57.5
	c64.445-64.445,64.444-168.93,0-233.376c-64.447-64.444-168.93-64.445-233.378,0c-43.545,43.545-74.58,102.291-85.641,157.835"/>
<path style="fill:#F6E088;" d="M128.713,437.985c-1.793-1.793-3.719-3.366-5.747-4.735l67.913-67.914
	c-9.521-4.854-18.197-11.017-25.791-18.607c-7.591-7.593-13.75-16.27-18.607-25.791l-67.915,67.914
	c-1.368-2.025-2.941-3.954-4.735-5.746c-15.152-15.155-39.722-15.155-54.878,0C3.8,398.263,3.8,422.832,18.954,437.987
	c15.156,15.154,39.726,15.154,54.878-0.001c-15.151,15.155-15.152,39.725,0.001,54.88c15.154,15.154,39.725,15.154,54.881,0
	C143.869,477.711,143.868,453.14,128.713,437.985z"/>
<g>
	<path style="fill:#491E17;" d="M461.343,50.479c-67.307-67.304-176.822-67.306-244.131,0
		c-43.406,43.406-76.198,103.865-87.721,161.726l14.915,2.971c10.959-55.03,42.195-112.579,83.559-153.943
		c61.378-61.375,161.248-61.376,222.623,0c61.376,61.378,61.376,161.246,0,222.621c-40.58,40.58-94.973,70.678-149.231,82.574
		c-26.965,5.912-51.924,6.891-74.182,2.911c-11.341-2.029-21.689-5.323-30.995-9.835l-1.846-0.942
		c-7.871-4.013-14.995-8.94-21.224-14.675c-0.897-0.827-1.779-1.671-2.642-2.535c-0.01-0.01-0.02-0.02-0.029-0.03
		c-0.758-0.76-1.501-1.538-2.234-2.328c-0.142-0.152-0.283-0.304-0.425-0.458c-5.662-6.185-10.541-13.247-14.522-21.053
		l-1.433-2.809c-8.801-18.507-14.4-44.294-10.486-79.753l-15.117-1.668c-3.6,32.615,0.319,62.04,11.129,86.065l-58.276,58.275
		c-8.749-8.68-20.345-13.457-32.677-13.457c-12.397,0-24.051,4.828-32.817,13.594c-18.095,18.096-18.095,47.537,0,65.633
		c8.767,8.765,20.421,13.592,32.816,13.592c3.213,0,6.375-0.324,9.45-0.957c-3.044,14.79,1.16,30.791,12.612,42.243
		c8.766,8.766,20.421,13.593,32.817,13.593c12.398,0,24.052-4.827,32.818-13.593c18.05-18.05,18.094-47.391,0.135-65.497
		l58.192-58.192c9.781,4.42,20.49,7.683,32.08,9.756c9.824,1.757,20.093,2.635,30.762,2.635c15.649,0,32.156-1.889,49.356-5.66
		c57.022-12.502,114.147-44.094,156.729-86.676C528.648,227.302,528.648,117.786,461.343,50.479z M169.371,376.092l-22.529-22.529
		l-10.754,10.753l22.53,22.53l-47.548,47.548l7.643,5.159c1.666,1.124,3.221,2.405,4.624,3.809
		c12.166,12.166,12.166,31.96,0.002,44.126c-5.895,5.894-13.73,9.139-22.065,9.139s-16.169-3.245-22.063-9.139
		c-12.164-12.165-12.164-31.96-0.001-44.127l-10.754-10.752c-5.892,5.894-13.727,9.139-22.061,9.139s-16.169-3.245-22.063-9.138
		c-12.164-12.165-12.164-31.96,0-44.126c5.894-5.894,13.73-9.139,22.064-9.139s16.168,3.246,22.064,9.142
		c1.401,1.399,2.681,2.954,3.807,4.621l5.16,7.642l67.381-67.38c2.329,3.699,4.858,7.222,7.565,10.565
		c0.119,0.148,0.24,0.294,0.36,0.441c0.574,0.702,1.157,1.395,1.747,2.079c0.207,0.239,0.414,0.48,0.622,0.717
		c0.545,0.62,1.098,1.233,1.657,1.839c0.213,0.232,0.423,0.465,0.639,0.696c0.761,0.813,1.533,1.616,2.319,2.402
		c0.895,0.894,1.813,1.768,2.743,2.631c0.325,0.303,0.655,0.603,0.984,0.903c0.598,0.542,1.205,1.077,1.818,1.606
		c0.923,0.801,1.861,1.583,2.811,2.352c0.207,0.166,0.411,0.338,0.619,0.504c3.105,2.476,6.357,4.781,9.746,6.921L169.371,376.092z"
		/>
	<path style="fill:#491E17;" d="M432.158,265.423c24.772-24.772,38.413-57.757,38.412-92.88
		c-0.001-35.122-13.644-68.108-38.418-92.879l-10.752,10.754c21.9,21.9,33.961,51.066,33.962,82.125
		c0.001,31.06-12.06,60.226-33.959,82.125L432.158,265.423z"/>
</g>
<g>
</g>
<g>
</g>
<g>
</g>
<g>
</g>
<g>
</g>
<g>
</g>
<g>
</g>
<g>
</g>
<g>
</g>
<g>
</g>
<g>
</g>
<g>
</g>
<g>
</g>
<g>
</g>
<g>
</g>
</svg>
